<?xml version="1.0" encoding="utf-8" ?>
<svg xmlns="http://www.w3.org/2000/svg" xmlns:xlink="http://www.w3.org/1999/xlink" width="1024" height="1024">
	<path fill="#7294F7" transform="scale(1.6 1.6)" d="M350.29 430.353C350.992 429.385 351.154 428.581 351.412 427.417C357.403 430.812 374.525 445.049 381.341 450.343C395.201 461.107 402.406 468.096 418.702 475.51C419.546 475.894 426.067 478.632 426.257 478.805C428.557 480.893 431.062 480.79 433.378 482.338C434.754 483.257 435.569 485.152 436.943 486.177C440.581 488.89 444.541 490.489 448.585 493.689C446.751 496.237 456.939 502.931 459.263 504.379L480.052 517.379C483.547 519.54 503.404 530.822 501.43 536.092C500.322 539.045 495.117 538.665 493.663 541.331C478.99 550.027 448.372 550.768 432.354 547.748C380.118 537.899 340.155 483.325 350.29 430.353Z"/>
	<path fill="#7294F7" transform="scale(1.6 1.6)" d="M130.753 266.082C121.783 273.044 115.362 281.632 102.754 280.025C85.7027 277.85 75.449 257.249 88.4326 243.856C94.3463 237.757 103.497 231.48 110.329 225.894L236.11 123.616C250.351 112.078 264.263 99.9665 278.926 88.9638C300.456 72.8086 317.231 91.6959 333.306 104.346C346.125 114.433 358.873 124.563 371.459 134.941L491.414 233.282C496.301 237.246 502.188 241.324 505.93 246.43C517.24 261.862 502.064 283.436 484.062 279.878C475.804 278.246 469.33 271.185 462.591 266.589C460.576 263.953 454.983 260.204 452.154 257.887L347.237 171.175C333.662 159.864 310.675 137.45 296.707 130.213C292.241 133.073 288.125 136.767 284.003 140.099L260.667 159.198C247.519 170.009 233.752 180.187 220.904 191.35L138.396 259.372C135.878 261.453 132.832 263.564 130.753 266.082Z"/>
	<defs>
		<linearGradient id="gradient_0" gradientUnits="userSpaceOnUse" x1="426.13589" y1="484.52692" x2="512.34796" y2="359.56082">
			<stop offset="0" stop-color="#7F9DF9"/>
			<stop offset="1" stop-color="#B9F1F4"/>
		</linearGradient>
	</defs>
	<path fill="url(#gradient_0)" transform="scale(1.6 1.6)" d="M350.29 430.353C363.231 341.02 481.72 306.762 538.614 383.988C577.497 436.768 553.91 519.281 493.663 541.331C495.117 538.665 500.322 539.045 501.43 536.092C503.404 530.822 483.547 519.54 480.052 517.379L459.263 504.379C456.939 502.931 446.751 496.237 448.585 493.689C444.541 490.489 440.581 488.89 436.943 486.177C435.569 485.152 434.754 483.257 433.378 482.338C431.062 480.79 428.557 480.893 426.257 478.805C426.067 478.632 419.546 475.894 418.702 475.51C402.406 468.096 395.201 461.107 381.341 450.343C374.525 445.049 357.403 430.812 351.412 427.417C351.154 428.581 350.992 429.385 350.29 430.353ZM471.386 409.191C458.902 412.087 450.72 423.589 441.925 432.072C435.2 438.558 426.44 444.676 421.504 452.726C412.729 467.035 424.628 483.437 442.371 482.146C453.365 479.542 462.265 467.58 470.116 460.051C475.973 454.433 482.299 449.066 487.863 443.173C501.238 429.007 491.234 407.07 471.386 409.191Z"/>
	<defs>
		<linearGradient id="gradient_1" gradientUnits="userSpaceOnUse" x1="161.16957" y1="478.13556" x2="374.42175" y2="186.05841">
			<stop offset="0" stop-color="#6883FB"/>
			<stop offset="1" stop-color="#BBEFF3"/>
		</linearGradient>
	</defs>
	<path fill="url(#gradient_1)" transform="scale(1.6 1.6)" d="M296.707 130.213C310.675 137.45 333.662 159.864 347.237 171.175L452.154 257.887C454.983 260.204 460.576 263.953 462.591 266.589C463.291 282.132 463.194 305.406 462.185 320.649C440.814 320.527 424.403 321.446 404.312 329.643C399.277 331.698 394.153 335.079 389.325 336.861C370.527 348.54 359.278 356.779 346.545 375.941C331.603 398.428 324.101 423.777 324.783 450.678C324.904 455.462 325.392 460.447 324.787 465.206C321.715 489.399 294.99 486.523 277.447 486.506L206.754 486.505C180.744 486.506 161.061 485.284 143.518 461.749C127.256 439.933 130.407 421.675 130.447 395.96L130.452 288.389C130.449 281.109 129.679 273.269 130.753 266.082C132.832 263.564 135.878 261.453 138.396 259.372L220.904 191.35C233.752 180.187 247.519 170.009 260.667 159.198L284.003 140.099C288.125 136.767 292.241 133.073 296.707 130.213Z"/>
</svg>
